<svg width="24" height="24" viewBox="0 0 24 24" fill="none" xmlns="http://www.w3.org/2000/svg">
<path d="M6.616 21C6.17133 21 5.791 20.8417 5.475 20.525C5.159 20.2083 5.00067 19.8287 5 19.386V17.506C5 17.254 5.05567 17.0207 5.167 16.806C5.27833 16.5913 5.43367 16.4097 5.633 16.261C6.94967 15.2123 7.857 14.1873 8.355 13.186C8.853 12.1847 9.21867 11.2893 9.452 10.5H7.366C7.224 10.5 7.105 10.452 7.009 10.356C6.913 10.26 6.865 10.141 6.865 9.999C6.865 9.857 6.913 9.73833 7.009 9.643C7.105 9.54767 7.22367 9.5 7.365 9.5H9.52C9.13333 9.15933 8.825 8.755 8.595 8.287C8.365 7.819 8.25 7.30667 8.25 6.75C8.25 5.70867 8.615 4.82333 9.345 4.094C10.075 3.36467 10.9613 3 12.004 3C13.0467 3 13.9317 3.36467 14.659 4.094C15.3863 4.82333 15.75 5.70867 15.75 6.75C15.75 7.30667 15.6353 7.819 15.406 8.287C15.1767 8.755 14.868 9.15933 14.48 9.5H16.653C16.7943 9.5 16.913 9.548 17.009 9.644C17.105 9.74 17.153 9.859 17.153 10.001C17.153 10.143 17.105 10.2617 17.009 10.357C16.913 10.4523 16.7943 10.5 16.653 10.5H14.585C14.7883 11.29 15.1403 12.1853 15.641 13.186C16.141 14.186 17.0493 15.2107 18.366 16.26C18.5647 16.4087 18.72 16.5903 18.832 16.805C18.944 17.0197 18.9997 17.253 18.999 17.505V19.385C18.999 19.829 18.8407 20.209 18.524 20.525C18.2073 20.841 17.8273 20.9993 17.384 21H6.616Z" fill="black"/>
</svg>
