<svg width="24" height="24" viewBox="0 0 24 24" fill="none" xmlns="http://www.w3.org/2000/svg">
<path d="M12 1.17188C6.01481 1.17188 1.17188 6.01481 1.17188 12C1.17188 17.9852 6.01481 22.8281 12 22.8281C17.9852 22.8281 22.8281 17.9852 22.8281 12C22.8281 6.01481 17.9852 1.17188 12 1.17188ZM12 1.82812C17.6128 1.82812 22.1719 6.38719 22.1719 12C22.1719 17.6128 17.6128 22.1719 12 22.1719C6.38719 22.1719 1.82812 17.6128 1.82812 12C1.82812 6.38719 6.38719 1.82812 12 1.82812ZM12 2.67188C11.6353 2.67188 11.2756 2.69344 10.9219 2.73403V7.96983C11.2735 7.8756 11.636 7.82796 12 7.82812C12.3727 7.82812 12.7341 7.87758 13.0781 7.96983V2.73403C12.7202 2.69282 12.3603 2.67207 12 2.67188ZM10.0781 2.87002C9.33179 3.0259 8.60757 3.27333 7.92188 3.6067V10.0781H8.29852C8.69611 9.31714 9.31714 8.69611 10.0781 8.29852V2.87002ZM13.9219 2.87002V8.29852C14.6829 8.69611 15.3039 9.31714 15.7015 10.0781H16.0781V3.6067C15.3924 3.27333 14.6682 3.0259 13.9219 2.87002ZM7.07812 4.07273C6.26958 4.57546 5.54247 5.1986 4.92188 5.92064V11.0836C5.06344 11.0084 5.18625 10.9449 5.28216 10.8877C5.41777 10.8068 5.49309 10.7417 5.52703 10.6955C5.56106 10.6492 5.57812 10.6172 5.57812 10.5V10.0781H7.07812V4.07273ZM16.9219 4.07273V10.0781H18.4219V10.5C18.4219 10.6172 18.4402 10.6542 18.4745 10.7033C18.5089 10.7525 18.5801 10.8172 18.7028 10.899C18.802 10.9652 18.9318 11.0407 19.0781 11.1342V5.92059C18.4575 5.19855 17.7304 4.57546 16.9219 4.07273ZM4.07812 7.06945C3.18703 8.49966 2.67188 10.1888 2.67188 12C2.67188 13.8112 3.18703 15.5004 4.07812 16.9305V12.4059C4.04759 12.3843 4.01681 12.362 3.98578 12.3391L3.52781 12L3.98592 11.6609C4.01695 11.638 4.04773 11.6157 4.07827 11.5941V7.0695L4.07812 7.06945ZM19.9219 7.06945V11.8253L20.0967 12L19.9219 12.1747V16.9305C20.813 15.5004 21.3281 13.8112 21.3281 12C21.3281 10.1888 20.813 8.49952 19.9219 7.06945ZM12 8.67188C10.1569 8.67188 8.67188 10.1569 8.67188 12C8.67188 13.8431 10.1569 15.3281 12 15.3281C13.8431 15.3281 15.3281 13.8431 15.3281 12C15.3281 10.1569 13.8431 8.67188 12 8.67188ZM12 10.0781C13.0564 10.0781 13.9219 10.9436 13.9219 12C13.9219 13.0564 13.0564 13.9219 12 13.9219C10.9436 13.9219 10.0781 13.0564 10.0781 12C10.0781 10.9436 10.9436 10.0781 12 10.0781ZM6.34706 10.9219C6.31163 11.021 6.26625 11.1144 6.20691 11.1952C6.06863 11.3833 5.89303 11.5057 5.71453 11.6123C5.50013 11.7403 5.2665 11.8562 5.01497 12C5.26645 12.1438 5.50013 12.2597 5.71453 12.3877C5.89303 12.4942 6.06863 12.6167 6.20691 12.8048C6.26625 12.8856 6.31163 12.979 6.34706 13.0781H7.96988C7.87558 12.7265 7.82792 12.364 7.82812 12C7.82812 11.6273 7.87758 11.2659 7.96983 10.9219H6.34702H6.34706ZM12 10.9219C11.3995 10.9219 10.9219 11.3995 10.9219 12C10.9219 12.6005 11.3995 13.0781 12 13.0781C12.6005 13.0781 13.0781 12.6005 13.0781 12C13.0781 11.3995 12.6005 10.9219 12 10.9219ZM16.0302 10.9219C16.1244 11.2735 16.172 11.636 16.1719 12C16.1719 12.3727 16.1224 12.7341 16.0302 13.0781H17.6517C17.6856 12.9819 17.7284 12.8912 17.7833 12.8127C17.913 12.6275 18.0761 12.5047 18.2347 12.399C18.4356 12.2651 18.6394 12.1477 18.8444 12C18.6394 11.8523 18.4356 11.7349 18.2347 11.601C18.0761 11.4953 17.913 11.3725 17.7833 11.1873C17.7284 11.1088 17.6856 11.0181 17.6517 10.9219H16.0302ZM19.0781 12.8658C18.9318 12.9593 18.802 13.0348 18.7028 13.101C18.5801 13.1828 18.5089 13.2475 18.4745 13.2967C18.4402 13.3459 18.4219 13.3828 18.4219 13.5V13.9219H16.9219V19.9273C17.7304 19.4245 18.4575 18.8014 19.0781 18.0794V12.8658ZM4.92188 12.9164V18.0794C5.54247 18.8014 6.26958 19.4245 7.07812 19.9273V13.9219H5.57812V13.5C5.57812 13.3828 5.56106 13.3508 5.52703 13.3045C5.49305 13.2583 5.41781 13.1933 5.28216 13.1123C5.18625 13.0551 5.06339 12.9916 4.92188 12.9164ZM7.92188 13.9219V20.3933C8.60757 20.7267 9.33179 20.9741 10.0781 21.13V15.7015C9.31714 15.3039 8.69611 14.6829 8.29852 13.9219H7.92188ZM15.7015 13.9219C15.3039 14.6829 14.6829 15.3039 13.9219 15.7015V21.13C14.6682 20.9741 15.3924 20.7267 16.0781 20.3933V13.9219H15.7015ZM10.9219 16.0302V21.266C11.2756 21.3066 11.6353 21.3281 12 21.3281C12.3647 21.3281 12.7244 21.3066 13.0781 21.266V16.0302C12.7265 16.1244 12.364 16.172 12 16.1719C11.6273 16.1719 11.2659 16.1224 10.9219 16.0302Z" fill="black"/>
</svg>
