<svg width="24" height="24" viewBox="0 0 24 24" fill="none" xmlns="http://www.w3.org/2000/svg">
<g clip-path="url(#clip0_7_14)">
<path d="M11.2544 0.918467C8.59707 0.93553 6.05682 2.28037 4.14844 4.30959C1.644 6.97256 0.307129 10.774 1.28766 14.1577C2.05313 13.7453 2.82314 13.4083 3.58153 13.1558C3.28496 7.38267 7.76499 3.26883 12.9579 3.29592C13.1574 2.66944 13.4393 2.01586 13.8076 1.33308C13.0425 1.07855 12.2731 0.941201 11.5122 0.92142C11.4263 0.919217 11.3401 0.917951 11.2544 0.918514L11.2544 0.918467ZM12.7163 4.17047C8.14332 4.25226 4.28283 7.78453 4.44877 12.9037C4.96374 12.7758 5.47008 12.689 5.96189 12.6489C6.6458 12.5933 7.30674 12.6272 7.92047 12.7632L13.0459 7.63781C12.7951 7.06252 12.6468 6.44778 12.6079 5.8214C12.5743 5.29378 12.6144 4.74408 12.7294 4.17047H12.7163ZM15.5684 7.01662L14.7773 7.80764L16.207 9.23437L16.9951 8.44626L15.5684 7.01662ZM13.8281 8.09475L8.23243 13.6905L10.3242 15.7793L15.917 10.1865L13.8281 8.09475ZM22.7285 10.2554C22.0504 10.6214 21.4011 10.9026 20.7788 11.1021C20.814 16.3058 16.6893 20.7959 10.9029 20.4902C10.6502 21.2451 10.3145 22.0119 9.90385 22.774C13.2878 23.7547 17.0904 22.4177 19.7535 19.9132C22.4275 17.3984 23.9027 13.7857 22.7287 10.2554L22.7285 10.2554ZM16.3535 10.9893L11.2822 16.0605C11.4336 16.6963 11.4737 17.3845 11.4155 18.0982C11.3751 18.5941 11.2865 19.1049 11.1563 19.6245C16.2931 19.7987 19.8342 15.921 19.9029 11.332C19.3244 11.4495 18.7704 11.4915 18.2388 11.458C17.5691 11.4158 16.9405 11.2543 16.3535 10.9893ZM7.94532 14.6397L0.94191 21.6431V23.1562H2.28516L9.3721 16.0693L7.94532 14.6397Z" fill="black"/>
</g>
<defs>
<clipPath id="clip0_7_14">
<rect width="24" height="24" fill="white"/>
</clipPath>
</defs>
</svg>
