<svg width="24" height="24" viewBox="0 0 24 24" fill="none" xmlns="http://www.w3.org/2000/svg">
<g clip-path="url(#clip0_7_16)">
<path d="M23.7 0.750007L23.55 0.450007L23.25 0.300007C23.1 0.300007 19.5 -0.899992 16.95 1.65001L6.9 11.55C5.55 10.65 4.35 9.75001 4.2 10.05L3.6 10.5C3.3 10.8 4.95 13.05 6.3 14.55L2.55 19.65C2.1 19.2 1.35 19.2 0.900003 19.65L0.450003 20.1C3.04729e-06 20.55 3.04729e-06 21.3 0.450003 21.75L1.95 23.25C2.4 23.7 3.15 23.7 3.6 23.25L4.05 22.8C4.5 22.35 4.5 21.6 4.05 21.15L9.3 17.4C10.8 18.75 13.05 20.4 13.35 20.1L13.95 19.5C14.1 19.35 13.35 18 12.3 16.8L22.35 6.75001C24.9 4.50001 23.7 0.900007 23.7 0.750007ZM11.55 15.75L10.35 14.55L19.65 4.20001L9.3 13.5L8.25 12.45L18 2.70001C19.5 1.20001 21.45 1.50001 22.35 1.65001C22.5 2.55001 22.8 4.50001 21.3 5.85001L11.55 15.75Z" fill="black"/>
</g>
<defs>
<clipPath id="clip0_7_16">
<rect width="24" height="24" fill="white"/>
</clipPath>
</defs>
</svg>
