<svg width="24" height="24" viewBox="0 0 24 24" fill="none" xmlns="http://www.w3.org/2000/svg">
<path d="M17.1975 1.5C18.2396 1.50092 19.2584 1.80882 20.1266 2.38524C20.9947 2.96165 21.6739 3.78105 22.0792 4.74112C22.4845 5.70119 22.598 6.75938 22.4056 7.78357C22.2131 8.80776 21.7232 9.75256 20.997 10.5H16.5L18.75 12.75L16.5 15H12L14.25 17.25L13.3185 18.1815C12.4748 19.0255 11.3304 19.4997 10.137 19.5H6L3.3105 22.1895C3.10843 22.3722 2.84388 22.4703 2.57154 22.4635C2.29919 22.4566 2.0399 22.3454 1.84726 22.1527C1.65463 21.9601 1.54339 21.7008 1.53654 21.4285C1.5297 21.1561 1.62778 20.8916 1.8105 20.6895L4.5 18L15.951 6.531C16.0918 6.39037 16.171 6.19955 16.1712 6.00053C16.1713 5.80151 16.0924 5.61058 15.9517 5.46975C15.8111 5.32892 15.6203 5.24972 15.4213 5.24958C15.2223 5.24944 15.0313 5.32837 14.8905 5.469L4.5 15.8595V13.8645C4.49993 13.2733 4.61634 12.688 4.84257 12.1418C5.0688 11.5957 5.40043 11.0994 5.8185 10.6815L13.4475 3.0525C14.4426 2.05885 15.7912 1.50052 17.1975 1.5Z" fill="black"/>
</svg>
