<svg width="24" height="24" viewBox="0 0 24 24" fill="none" xmlns="http://www.w3.org/2000/svg">
<g clip-path="url(#clip0_8_28)">
<path d="M18.08 9.728V9.344C18.08 8.496 17.696 7.696 17.04 7.136L14.656 5.312V0.928C14.656 0.928 12.48 1.504 11.328 2.976V0L10.432 0.32C10.32 0.352 7.52 1.376 5.936 5.168L1.6 7.84L3.008 9.248L0 11.824V14.56C0.891935 13.676 2.01679 13.0637 3.24342 12.7946C4.47004 12.5255 5.7479 12.6106 6.928 13.04C7.44 11.568 8.816 9.088 12 11.296C15.136 13.472 18.816 14.592 20.512 15.056L20.064 15.584C19.856 15.76 18.704 16.864 16.384 15.616L12.72 13.968L10.672 17.264L12.192 19.312L10.832 21.36L12.816 24H15.328L13.28 21.296L14.592 19.328L13.104 17.104C13.168 16.896 13.504 16.4 13.504 16.4L14.72 17.008C18.768 19.408 21.392 17.104 21.488 17.008L24 14L18.096 9.728H18.08ZM15.92 10.272C15.76 10.608 15.36 10.736 15.024 10.576L13.696 9.904C13.6169 9.86548 13.5462 9.81166 13.488 9.74565C13.4299 9.67964 13.3853 9.60275 13.3571 9.51942C13.3288 9.4361 13.3173 9.348 13.3233 9.26021C13.3293 9.17243 13.3527 9.08671 13.392 9.008C13.552 8.672 13.952 8.544 14.288 8.704L15.616 9.376C15.936 9.536 16.08 9.936 15.92 10.272Z" fill="black"/>
</g>
<defs>
<clipPath id="clip0_8_28">
<rect width="24" height="24" fill="white"/>
</clipPath>
</defs>
</svg>
