<svg width="24" height="24" viewBox="0 0 24 24" fill="none" xmlns="http://www.w3.org/2000/svg">
<path d="M12.4258 5.56189L15.3016 7.51058L21.2075 1.30566L12.4258 5.56189ZM12.109 6.36641L12.39 8.79194L14.7764 11.0634L17.2227 11.225C16.9699 10.8834 16.7166 10.5421 16.4629 10.2012C16.132 9.75701 15.7954 9.30734 15.5311 8.95926C15.4216 8.81463 15.3111 8.6708 15.1996 8.52779C15.1485 8.46277 15.0973 8.4041 15.0726 8.37469L12.109 6.36641ZM21.8186 1.88748L15.9217 8.08282C16.0035 8.188 16.0924 8.30325 16.2031 8.44905C16.4703 8.80107 16.8079 9.25186 17.1396 9.69712C17.4282 10.0848 17.7163 10.473 18.0037 10.8617L21.8186 1.88748ZM9.63514 12.5119L9.2643 12.9015L11.1932 13.9949L9.63514 12.5119ZM8.6648 13.5314L8.23014 13.9879L10.1637 15.0842L10.5982 14.6276L8.6648 13.5314ZM7.63523 14.6207L9.19326 16.1037L9.56406 15.7141L7.63523 14.6207ZM7.04966 15.2283L2.18143 20.745L2.76747 22.6944L8.61161 16.7147L7.04966 15.2283Z" fill="black"/>
<path d="M11.5697 9.85898C11.317 10.0062 11.0456 10.2142 10.8112 10.4604C10.4091 10.883 10.1264 11.408 10.0589 11.7504L11.6331 13.2489C12.0187 13.6478 11.9867 13.6172 12.0187 13.6478L12.7082 13.1414C12.8735 13.0214 13.0383 12.88 13.188 12.7227C13.5903 12.3001 13.8729 11.7752 13.9403 11.4326L12.0629 9.64529C11.9213 9.68046 11.7509 9.75346 11.5697 9.85898Z" fill="black"/>
</svg>
